%TF.GenerationSoftware,KiCad,Pcbnew,10.0.3*%
%TF.CreationDate,2026-09-10T00:49:13+02:00*%
%TF.ProjectId,bus_tap,6275735f-7461-4702-9e6b-696361645f70,rev?*%
%TF.SameCoordinates,PX732f4e0PY6ac7348*%
%TF.FileFunction,Legend,Bot*%
%TF.FilePolarity,Positive*%
%FSLAX46Y46*%
G04 Gerber Fmt 4.6, Leading zero omitted, Abs format (unit mm)*
G04 Created by KiCad (PCBNEW 10.0.3) date 2026-09-10 00:49:13*
%MOMM*%
%LPD*%
G01*
G04 APERTURE LIST*
%ADD10C,0.100000*%
G04 APERTURE END LIST*
D10*
X1974687Y3687820D02*
X2022306Y3640200D01*
X2022306Y3640200D02*
X2165163Y3592581D01*
X2165163Y3592581D02*
X2260401Y3592581D01*
X2260401Y3592581D02*
X2403258Y3640200D01*
X2403258Y3640200D02*
X2498496Y3735439D01*
X2498496Y3735439D02*
X2546115Y3830677D01*
X2546115Y3830677D02*
X2593734Y4021153D01*
X2593734Y4021153D02*
X2593734Y4164010D01*
X2593734Y4164010D02*
X2546115Y4354486D01*
X2546115Y4354486D02*
X2498496Y4449724D01*
X2498496Y4449724D02*
X2403258Y4544962D01*
X2403258Y4544962D02*
X2260401Y4592581D01*
X2260401Y4592581D02*
X2165163Y4592581D01*
X2165163Y4592581D02*
X2022306Y4544962D01*
X2022306Y4544962D02*
X1974687Y4497343D01*
X1593734Y4497343D02*
X1546115Y4544962D01*
X1546115Y4544962D02*
X1450877Y4592581D01*
X1450877Y4592581D02*
X1212782Y4592581D01*
X1212782Y4592581D02*
X1117544Y4544962D01*
X1117544Y4544962D02*
X1069925Y4497343D01*
X1069925Y4497343D02*
X1022306Y4402105D01*
X1022306Y4402105D02*
X1022306Y4306867D01*
X1022306Y4306867D02*
X1069925Y4164010D01*
X1069925Y4164010D02*
X1641353Y3592581D01*
X1641353Y3592581D02*
X1022306Y3592581D01*
X4414687Y3667820D02*
X4462306Y3620200D01*
X4462306Y3620200D02*
X4605163Y3572581D01*
X4605163Y3572581D02*
X4700401Y3572581D01*
X4700401Y3572581D02*
X4843258Y3620200D01*
X4843258Y3620200D02*
X4938496Y3715439D01*
X4938496Y3715439D02*
X4986115Y3810677D01*
X4986115Y3810677D02*
X5033734Y4001153D01*
X5033734Y4001153D02*
X5033734Y4144010D01*
X5033734Y4144010D02*
X4986115Y4334486D01*
X4986115Y4334486D02*
X4938496Y4429724D01*
X4938496Y4429724D02*
X4843258Y4524962D01*
X4843258Y4524962D02*
X4700401Y4572581D01*
X4700401Y4572581D02*
X4605163Y4572581D01*
X4605163Y4572581D02*
X4462306Y4524962D01*
X4462306Y4524962D02*
X4414687Y4477343D01*
X3462306Y3572581D02*
X4033734Y3572581D01*
X3748020Y3572581D02*
X3748020Y4572581D01*
X3748020Y4572581D02*
X3843258Y4429724D01*
X3843258Y4429724D02*
X3938496Y4334486D01*
X3938496Y4334486D02*
X4033734Y4286867D01*
X13659925Y13322581D02*
X14136115Y13322581D01*
X14136115Y13322581D02*
X14136115Y14322581D01*
X12802782Y13322581D02*
X13374210Y13322581D01*
X13088496Y13322581D02*
X13088496Y14322581D01*
X13088496Y14322581D02*
X13183734Y14179724D01*
X13183734Y14179724D02*
X13278972Y14084486D01*
X13278972Y14084486D02*
X13374210Y14036867D01*
X18469925Y11562581D02*
X18946115Y11562581D01*
X18946115Y11562581D02*
X18946115Y12562581D01*
X18184210Y12467343D02*
X18136591Y12514962D01*
X18136591Y12514962D02*
X18041353Y12562581D01*
X18041353Y12562581D02*
X17803258Y12562581D01*
X17803258Y12562581D02*
X17708020Y12514962D01*
X17708020Y12514962D02*
X17660401Y12467343D01*
X17660401Y12467343D02*
X17612782Y12372105D01*
X17612782Y12372105D02*
X17612782Y12276867D01*
X17612782Y12276867D02*
X17660401Y12134010D01*
X17660401Y12134010D02*
X18231829Y11562581D01*
X18231829Y11562581D02*
X17612782Y11562581D01*
X20702306Y11154962D02*
X20797544Y11202581D01*
X20797544Y11202581D02*
X20940401Y11202581D01*
X20940401Y11202581D02*
X21083258Y11154962D01*
X21083258Y11154962D02*
X21178496Y11059724D01*
X21178496Y11059724D02*
X21226115Y10964486D01*
X21226115Y10964486D02*
X21273734Y10774010D01*
X21273734Y10774010D02*
X21273734Y10631153D01*
X21273734Y10631153D02*
X21226115Y10440677D01*
X21226115Y10440677D02*
X21178496Y10345439D01*
X21178496Y10345439D02*
X21083258Y10250200D01*
X21083258Y10250200D02*
X20940401Y10202581D01*
X20940401Y10202581D02*
X20845163Y10202581D01*
X20845163Y10202581D02*
X20702306Y10250200D01*
X20702306Y10250200D02*
X20654687Y10297820D01*
X20654687Y10297820D02*
X20654687Y10631153D01*
X20654687Y10631153D02*
X20845163Y10631153D01*
X20226115Y10202581D02*
X20226115Y11202581D01*
X20226115Y11202581D02*
X19654687Y10202581D01*
X19654687Y10202581D02*
X19654687Y11202581D01*
X19178496Y10202581D02*
X19178496Y11202581D01*
X19178496Y11202581D02*
X18940401Y11202581D01*
X18940401Y11202581D02*
X18797544Y11154962D01*
X18797544Y11154962D02*
X18702306Y11059724D01*
X18702306Y11059724D02*
X18654687Y10964486D01*
X18654687Y10964486D02*
X18607068Y10774010D01*
X18607068Y10774010D02*
X18607068Y10631153D01*
X18607068Y10631153D02*
X18654687Y10440677D01*
X18654687Y10440677D02*
X18702306Y10345439D01*
X18702306Y10345439D02*
X18797544Y10250200D01*
X18797544Y10250200D02*
X18940401Y10202581D01*
X18940401Y10202581D02*
X19178496Y10202581D01*
X21473734Y5338296D02*
X20997544Y5338296D01*
X21568972Y5052581D02*
X21235639Y6052581D01*
X21235639Y6052581D02*
X20902306Y5052581D01*
X20568972Y5052581D02*
X20568972Y6052581D01*
X20568972Y6052581D02*
X20330877Y6052581D01*
X20330877Y6052581D02*
X20188020Y6004962D01*
X20188020Y6004962D02*
X20092782Y5909724D01*
X20092782Y5909724D02*
X20045163Y5814486D01*
X20045163Y5814486D02*
X19997544Y5624010D01*
X19997544Y5624010D02*
X19997544Y5481153D01*
X19997544Y5481153D02*
X20045163Y5290677D01*
X20045163Y5290677D02*
X20092782Y5195439D01*
X20092782Y5195439D02*
X20188020Y5100200D01*
X20188020Y5100200D02*
X20330877Y5052581D01*
X20330877Y5052581D02*
X20568972Y5052581D01*
X18997544Y5147820D02*
X19045163Y5100200D01*
X19045163Y5100200D02*
X19188020Y5052581D01*
X19188020Y5052581D02*
X19283258Y5052581D01*
X19283258Y5052581D02*
X19426115Y5100200D01*
X19426115Y5100200D02*
X19521353Y5195439D01*
X19521353Y5195439D02*
X19568972Y5290677D01*
X19568972Y5290677D02*
X19616591Y5481153D01*
X19616591Y5481153D02*
X19616591Y5624010D01*
X19616591Y5624010D02*
X19568972Y5814486D01*
X19568972Y5814486D02*
X19521353Y5909724D01*
X19521353Y5909724D02*
X19426115Y6004962D01*
X19426115Y6004962D02*
X19283258Y6052581D01*
X19283258Y6052581D02*
X19188020Y6052581D01*
X19188020Y6052581D02*
X19045163Y6004962D01*
X19045163Y6004962D02*
X18997544Y5957343D01*
X18807068Y4957343D02*
X18045163Y4957343D01*
X17854686Y5338296D02*
X17378496Y5338296D01*
X17949924Y5052581D02*
X17616591Y6052581D01*
X17616591Y6052581D02*
X17283258Y5052581D01*
X16378496Y5147820D02*
X16426115Y5100200D01*
X16426115Y5100200D02*
X16568972Y5052581D01*
X16568972Y5052581D02*
X16664210Y5052581D01*
X16664210Y5052581D02*
X16807067Y5100200D01*
X16807067Y5100200D02*
X16902305Y5195439D01*
X16902305Y5195439D02*
X16949924Y5290677D01*
X16949924Y5290677D02*
X16997543Y5481153D01*
X16997543Y5481153D02*
X16997543Y5624010D01*
X16997543Y5624010D02*
X16949924Y5814486D01*
X16949924Y5814486D02*
X16902305Y5909724D01*
X16902305Y5909724D02*
X16807067Y6004962D01*
X16807067Y6004962D02*
X16664210Y6052581D01*
X16664210Y6052581D02*
X16568972Y6052581D01*
X16568972Y6052581D02*
X16426115Y6004962D01*
X16426115Y6004962D02*
X16378496Y5957343D01*
X21493734Y8058296D02*
X21017544Y8058296D01*
X21588972Y7772581D02*
X21255639Y8772581D01*
X21255639Y8772581D02*
X20922306Y7772581D01*
X20588972Y7772581D02*
X20588972Y8772581D01*
X20588972Y8772581D02*
X20350877Y8772581D01*
X20350877Y8772581D02*
X20208020Y8724962D01*
X20208020Y8724962D02*
X20112782Y8629724D01*
X20112782Y8629724D02*
X20065163Y8534486D01*
X20065163Y8534486D02*
X20017544Y8344010D01*
X20017544Y8344010D02*
X20017544Y8201153D01*
X20017544Y8201153D02*
X20065163Y8010677D01*
X20065163Y8010677D02*
X20112782Y7915439D01*
X20112782Y7915439D02*
X20208020Y7820200D01*
X20208020Y7820200D02*
X20350877Y7772581D01*
X20350877Y7772581D02*
X20588972Y7772581D01*
X19017544Y7867820D02*
X19065163Y7820200D01*
X19065163Y7820200D02*
X19208020Y7772581D01*
X19208020Y7772581D02*
X19303258Y7772581D01*
X19303258Y7772581D02*
X19446115Y7820200D01*
X19446115Y7820200D02*
X19541353Y7915439D01*
X19541353Y7915439D02*
X19588972Y8010677D01*
X19588972Y8010677D02*
X19636591Y8201153D01*
X19636591Y8201153D02*
X19636591Y8344010D01*
X19636591Y8344010D02*
X19588972Y8534486D01*
X19588972Y8534486D02*
X19541353Y8629724D01*
X19541353Y8629724D02*
X19446115Y8724962D01*
X19446115Y8724962D02*
X19303258Y8772581D01*
X19303258Y8772581D02*
X19208020Y8772581D01*
X19208020Y8772581D02*
X19065163Y8724962D01*
X19065163Y8724962D02*
X19017544Y8677343D01*
X18827068Y7677343D02*
X18065163Y7677343D01*
X17827067Y7772581D02*
X17827067Y8772581D01*
X17827067Y8772581D02*
X17588972Y8772581D01*
X17588972Y8772581D02*
X17446115Y8724962D01*
X17446115Y8724962D02*
X17350877Y8629724D01*
X17350877Y8629724D02*
X17303258Y8534486D01*
X17303258Y8534486D02*
X17255639Y8344010D01*
X17255639Y8344010D02*
X17255639Y8201153D01*
X17255639Y8201153D02*
X17303258Y8010677D01*
X17303258Y8010677D02*
X17350877Y7915439D01*
X17350877Y7915439D02*
X17446115Y7820200D01*
X17446115Y7820200D02*
X17588972Y7772581D01*
X17588972Y7772581D02*
X17827067Y7772581D01*
X16255639Y7867820D02*
X16303258Y7820200D01*
X16303258Y7820200D02*
X16446115Y7772581D01*
X16446115Y7772581D02*
X16541353Y7772581D01*
X16541353Y7772581D02*
X16684210Y7820200D01*
X16684210Y7820200D02*
X16779448Y7915439D01*
X16779448Y7915439D02*
X16827067Y8010677D01*
X16827067Y8010677D02*
X16874686Y8201153D01*
X16874686Y8201153D02*
X16874686Y8344010D01*
X16874686Y8344010D02*
X16827067Y8534486D01*
X16827067Y8534486D02*
X16779448Y8629724D01*
X16779448Y8629724D02*
X16684210Y8724962D01*
X16684210Y8724962D02*
X16541353Y8772581D01*
X16541353Y8772581D02*
X16446115Y8772581D01*
X16446115Y8772581D02*
X16303258Y8724962D01*
X16303258Y8724962D02*
X16255639Y8677343D01*
X21543734Y2888296D02*
X21067544Y2888296D01*
X21638972Y2602581D02*
X21305639Y3602581D01*
X21305639Y3602581D02*
X20972306Y2602581D01*
X20638972Y2602581D02*
X20638972Y3602581D01*
X20638972Y3602581D02*
X20400877Y3602581D01*
X20400877Y3602581D02*
X20258020Y3554962D01*
X20258020Y3554962D02*
X20162782Y3459724D01*
X20162782Y3459724D02*
X20115163Y3364486D01*
X20115163Y3364486D02*
X20067544Y3174010D01*
X20067544Y3174010D02*
X20067544Y3031153D01*
X20067544Y3031153D02*
X20115163Y2840677D01*
X20115163Y2840677D02*
X20162782Y2745439D01*
X20162782Y2745439D02*
X20258020Y2650200D01*
X20258020Y2650200D02*
X20400877Y2602581D01*
X20400877Y2602581D02*
X20638972Y2602581D01*
X19067544Y2697820D02*
X19115163Y2650200D01*
X19115163Y2650200D02*
X19258020Y2602581D01*
X19258020Y2602581D02*
X19353258Y2602581D01*
X19353258Y2602581D02*
X19496115Y2650200D01*
X19496115Y2650200D02*
X19591353Y2745439D01*
X19591353Y2745439D02*
X19638972Y2840677D01*
X19638972Y2840677D02*
X19686591Y3031153D01*
X19686591Y3031153D02*
X19686591Y3174010D01*
X19686591Y3174010D02*
X19638972Y3364486D01*
X19638972Y3364486D02*
X19591353Y3459724D01*
X19591353Y3459724D02*
X19496115Y3554962D01*
X19496115Y3554962D02*
X19353258Y3602581D01*
X19353258Y3602581D02*
X19258020Y3602581D01*
X19258020Y3602581D02*
X19115163Y3554962D01*
X19115163Y3554962D02*
X19067544Y3507343D01*
X18877068Y2507343D02*
X18115163Y2507343D01*
X17543734Y3126391D02*
X17877067Y3126391D01*
X17877067Y2602581D02*
X17877067Y3602581D01*
X17877067Y3602581D02*
X17400877Y3602581D01*
X16448496Y2697820D02*
X16496115Y2650200D01*
X16496115Y2650200D02*
X16638972Y2602581D01*
X16638972Y2602581D02*
X16734210Y2602581D01*
X16734210Y2602581D02*
X16877067Y2650200D01*
X16877067Y2650200D02*
X16972305Y2745439D01*
X16972305Y2745439D02*
X17019924Y2840677D01*
X17019924Y2840677D02*
X17067543Y3031153D01*
X17067543Y3031153D02*
X17067543Y3174010D01*
X17067543Y3174010D02*
X17019924Y3364486D01*
X17019924Y3364486D02*
X16972305Y3459724D01*
X16972305Y3459724D02*
X16877067Y3554962D01*
X16877067Y3554962D02*
X16734210Y3602581D01*
X16734210Y3602581D02*
X16638972Y3602581D01*
X16638972Y3602581D02*
X16496115Y3554962D01*
X16496115Y3554962D02*
X16448496Y3507343D01*
X21761353Y13772581D02*
X21142306Y13772581D01*
X21142306Y13772581D02*
X21475639Y13391629D01*
X21475639Y13391629D02*
X21332782Y13391629D01*
X21332782Y13391629D02*
X21237544Y13344010D01*
X21237544Y13344010D02*
X21189925Y13296391D01*
X21189925Y13296391D02*
X21142306Y13201153D01*
X21142306Y13201153D02*
X21142306Y12963058D01*
X21142306Y12963058D02*
X21189925Y12867820D01*
X21189925Y12867820D02*
X21237544Y12820200D01*
X21237544Y12820200D02*
X21332782Y12772581D01*
X21332782Y12772581D02*
X21618496Y12772581D01*
X21618496Y12772581D02*
X21713734Y12820200D01*
X21713734Y12820200D02*
X21761353Y12867820D01*
X20856591Y13772581D02*
X20523258Y12772581D01*
X20523258Y12772581D02*
X20189925Y13772581D01*
X19951829Y13772581D02*
X19332782Y13772581D01*
X19332782Y13772581D02*
X19666115Y13391629D01*
X19666115Y13391629D02*
X19523258Y13391629D01*
X19523258Y13391629D02*
X19428020Y13344010D01*
X19428020Y13344010D02*
X19380401Y13296391D01*
X19380401Y13296391D02*
X19332782Y13201153D01*
X19332782Y13201153D02*
X19332782Y12963058D01*
X19332782Y12963058D02*
X19380401Y12867820D01*
X19380401Y12867820D02*
X19428020Y12820200D01*
X19428020Y12820200D02*
X19523258Y12772581D01*
X19523258Y12772581D02*
X19808972Y12772581D01*
X19808972Y12772581D02*
X19904210Y12820200D01*
X19904210Y12820200D02*
X19951829Y12867820D01*
X3352419Y14405402D02*
X4066704Y14405402D01*
X4066704Y14405402D02*
X4209561Y14453021D01*
X4209561Y14453021D02*
X4304800Y14548259D01*
X4304800Y14548259D02*
X4352419Y14691116D01*
X4352419Y14691116D02*
X4352419Y14786354D01*
X3685752Y13500640D02*
X4352419Y13500640D01*
X3685752Y13929211D02*
X4209561Y13929211D01*
X4209561Y13929211D02*
X4304800Y13881592D01*
X4304800Y13881592D02*
X4352419Y13786354D01*
X4352419Y13786354D02*
X4352419Y13643497D01*
X4352419Y13643497D02*
X4304800Y13548259D01*
X4304800Y13548259D02*
X4257180Y13500640D01*
X4352419Y13024449D02*
X3685752Y13024449D01*
X3780990Y13024449D02*
X3733371Y12976830D01*
X3733371Y12976830D02*
X3685752Y12881592D01*
X3685752Y12881592D02*
X3685752Y12738735D01*
X3685752Y12738735D02*
X3733371Y12643497D01*
X3733371Y12643497D02*
X3828609Y12595878D01*
X3828609Y12595878D02*
X4352419Y12595878D01*
X3828609Y12595878D02*
X3733371Y12548259D01*
X3733371Y12548259D02*
X3685752Y12453021D01*
X3685752Y12453021D02*
X3685752Y12310164D01*
X3685752Y12310164D02*
X3733371Y12214925D01*
X3733371Y12214925D02*
X3828609Y12167306D01*
X3828609Y12167306D02*
X4352419Y12167306D01*
X3685752Y11691116D02*
X4685752Y11691116D01*
X3733371Y11691116D02*
X3685752Y11595878D01*
X3685752Y11595878D02*
X3685752Y11405402D01*
X3685752Y11405402D02*
X3733371Y11310164D01*
X3733371Y11310164D02*
X3780990Y11262545D01*
X3780990Y11262545D02*
X3876228Y11214926D01*
X3876228Y11214926D02*
X4161942Y11214926D01*
X4161942Y11214926D02*
X4257180Y11262545D01*
X4257180Y11262545D02*
X4304800Y11310164D01*
X4304800Y11310164D02*
X4352419Y11405402D01*
X4352419Y11405402D02*
X4352419Y11595878D01*
X4352419Y11595878D02*
X4304800Y11691116D01*
X4304800Y10405402D02*
X4352419Y10500640D01*
X4352419Y10500640D02*
X4352419Y10691116D01*
X4352419Y10691116D02*
X4304800Y10786354D01*
X4304800Y10786354D02*
X4209561Y10833973D01*
X4209561Y10833973D02*
X3828609Y10833973D01*
X3828609Y10833973D02*
X3733371Y10786354D01*
X3733371Y10786354D02*
X3685752Y10691116D01*
X3685752Y10691116D02*
X3685752Y10500640D01*
X3685752Y10500640D02*
X3733371Y10405402D01*
X3733371Y10405402D02*
X3828609Y10357783D01*
X3828609Y10357783D02*
X3923847Y10357783D01*
X3923847Y10357783D02*
X4019085Y10833973D01*
X4352419Y9929211D02*
X3685752Y9929211D01*
X3876228Y9929211D02*
X3780990Y9881592D01*
X3780990Y9881592D02*
X3733371Y9833973D01*
X3733371Y9833973D02*
X3685752Y9738735D01*
X3685752Y9738735D02*
X3685752Y9643497D01*
M02*
